<?xml version="1.0" standalone="no"?>
<!DOCTYPE svg PUBLIC "-//W3C//DTD SVG 20010904//EN"
 "http://www.w3.org/TR/2001/REC-SVG-20010904/DTD/svg10.dtd">
<svg version="1.0" xmlns="http://www.w3.org/2000/svg"
 width="1280.000000pt" height="662.000000pt" viewBox="0 0 1280.000000 662.000000"
 preserveAspectRatio="xMidYMid meet">

<g transform="translate(0.000000,662.000000) scale(0.100000,-0.100000)"
fill="#000000" stroke="none">
<path d="M0 3310 l0 -3310 6400 0 6400 0 0 3310 0 3310 -6400 0 -6400 0 0
-3310z m8445 1065 c28 -10 59 -26 70 -36 23 -23 40 -22 -160 -9 -158 9 -391
-1 -510 -23 -44 -9 -111 -21 -150 -27 -115 -19 -318 -60 -350 -70 -16 -5 -46
-11 -65 -12 -19 -1 -41 -8 -48 -15 -7 -7 -21 -13 -30 -13 -26 0 -205 -46 -227
-58 -11 -6 -47 -19 -80 -28 -192 -55 -432 -151 -630 -252 -85 -43 -236 -133
-352 -208 -28 -19 -57 -34 -63 -34 -48 0 -337 -278 -379 -364 -71 -145 -18
-223 186 -276 43 -11 89 -19 103 -18 63 4 141 -3 135 -12 -9 -15 -154 -12
-237 5 -169 35 -238 90 -238 190 0 140 171 331 500 557 104 71 282 176 343
202 25 10 36 20 31 27 -5 9 -2 10 9 6 18 -7 106 37 119 59 5 6 17 10 28 7 13
-3 20 0 20 8 0 17 115 63 132 53 7 -4 8 -3 4 4 -4 7 -5 12 -2 12 2 0 13 3 23
6 15 5 16 4 3 -6 -13 -10 -12 -11 3 -6 10 3 24 6 30 6 8 0 8 3 -1 8 -8 6 -1
12 23 19 19 6 35 7 35 3 0 -4 9 -6 21 -3 14 4 17 8 9 13 -9 5 -6 10 9 15 11 3
25 4 30 0 16 -9 61 6 61 20 0 15 46 29 62 19 6 -4 8 -3 5 3 -8 14 141 54 173
47 17 -4 21 -3 12 4 -10 7 -1 12 32 21 55 14 59 14 51 1 -3 -6 1 -7 9 -4 9 3
14 9 11 14 -2 4 39 17 93 30 53 13 103 25 111 28 9 3 12 1 7 -6 -4 -7 -1 -12
9 -12 9 0 14 4 10 9 -8 14 31 23 65 16 22 -5 30 -3 30 7 0 13 31 19 360 75 58
10 329 21 420 18 47 -2 108 -11 135 -20z m-594 -155 c74 -35 103 -55 119 -83
13 -24 12 -31 -20 -98 -19 -39 -61 -113 -93 -163 -31 -50 -62 -103 -68 -118
-6 -16 -15 -28 -20 -28 -5 0 -9 -7 -9 -15 0 -8 -5 -15 -11 -15 -5 0 -8 -4 -5
-9 9 -13 -26 -71 -43 -71 -8 0 -11 -6 -7 -16 3 -9 -3 -28 -14 -44 -11 -15 -20
-35 -20 -43 0 -8 -7 -20 -15 -27 -8 -7 -15 -19 -15 -26 0 -8 -4 -14 -10 -14
-5 0 -10 -11 -10 -24 0 -13 -7 -29 -15 -36 -8 -7 -15 -17 -15 -23 0 -6 -7 -18
-16 -28 -8 -9 -17 -23 -18 -31 -1 -7 -7 -23 -14 -35 -7 -12 -12 -27 -12 -34 0
-7 -7 -21 -17 -31 -9 -10 -18 -30 -19 -44 -2 -14 -11 -35 -21 -46 -10 -11 -18
-25 -18 -31 -1 -14 -10 -39 -30 -82 -7 -16 -19 -47 -25 -67 -6 -21 -16 -40
-21 -44 -5 -3 -7 -9 -4 -14 3 -5 -3 -15 -13 -21 -13 -8 -17 -20 -14 -36 3 -16
-2 -29 -14 -38 -12 -9 -14 -14 -6 -15 8 0 40 25 73 57 59 56 83 65 32 11 -39
-41 -13 -34 38 10 68 58 109 84 109 70 0 -16 -60 -78 -76 -78 -6 0 -24 -25
-39 -55 -14 -30 -48 -79 -74 -107 -64 -70 -127 -167 -129 -197 -2 -50 -63 -80
-93 -45 -7 8 -30 24 -51 35 -21 11 -38 24 -38 29 0 5 9 29 19 52 11 24 27 70
37 103 18 66 34 92 43 76 9 -14 51 -2 51 14 0 8 3 21 7 31 4 12 3 15 -5 10 -7
-4 -12 -2 -12 4 0 7 9 14 19 17 13 3 27 28 45 79 26 71 27 94 5 94 -6 0 -8 -4
-5 -8 2 -4 -4 -9 -15 -9 -10 -1 -19 4 -19 10 0 22 32 58 46 53 8 -3 14 -1 14
3 0 5 -7 12 -16 15 -13 5 -14 9 -4 21 7 8 15 15 19 15 10 0 11 -69 1 -75 -11
-7 -4 -25 9 -25 11 0 33 78 26 90 -3 6 1 10 9 10 9 0 16 5 16 11 0 8 -12 10
-35 6 -19 -3 -37 -1 -41 5 -12 18 -152 -2 -359 -52 -110 -26 -228 -54 -263
-61 -51 -11 -71 -21 -105 -54 -23 -22 -40 -48 -39 -57 2 -10 -15 -37 -37 -61
-23 -24 -41 -49 -41 -55 0 -6 -13 -26 -29 -44 -43 -50 -84 -113 -121 -188 -12
-25 -30 -52 -39 -60 -20 -19 -71 -93 -71 -104 0 -5 -22 -45 -49 -90 -71 -119
-101 -175 -101 -190 0 -8 -6 -19 -14 -25 -8 -7 -17 -24 -21 -39 -3 -14 -17
-49 -30 -77 -42 -91 -65 -147 -65 -159 1 -29 -47 -150 -67 -172 -26 -28 -52
-30 -100 -7 -48 23 -70 74 -53 123 7 19 21 47 31 62 11 14 19 33 19 41 0 22
88 207 116 244 13 17 24 39 24 47 0 9 4 16 8 16 4 0 23 29 42 65 19 36 40 74
46 85 19 35 47 60 66 60 11 0 23 11 28 26 14 35 13 39 -6 23 -14 -12 -16 -11
-12 6 2 13 11 19 23 18 13 -1 28 11 43 33 12 19 28 34 35 33 7 -1 20 1 30 4 9
4 24 9 32 12 8 2 15 14 15 25 0 11 6 20 13 20 9 0 9 2 -1 8 -7 5 -10 16 -6 25
3 10 1 17 -5 17 -6 0 -11 4 -11 10 0 5 13 7 30 4 26 -6 30 -3 36 22 3 16 23
44 43 61 29 26 33 34 22 42 -12 8 -10 12 12 22 15 7 27 20 27 29 0 9 12 27 26
41 14 13 30 34 35 47 8 21 10 22 25 8 8 -9 21 -16 27 -15 9 0 8 2 0 6 -19 7
-16 40 5 48 15 6 14 8 -7 16 -15 6 -28 6 -35 0 -33 -27 -80 19 -67 65 10 38
112 92 163 87 28 -4 39 2 72 36 21 23 42 38 47 35 9 -5 99 80 99 95 0 4 14 20
30 36 32 31 39 48 15 39 -8 -4 -15 -12 -15 -19 0 -8 -14 -15 -32 -17 -25 -2
-32 -7 -30 -20 2 -11 -3 -18 -13 -18 -18 0 -19 5 -5 31 6 10 17 19 26 19 8 0
17 7 21 15 3 9 19 23 36 31 24 13 31 14 39 2 6 -10 13 -7 29 15 11 15 27 27
35 27 8 0 14 5 14 10 0 6 10 20 22 32 13 13 30 36 38 53 10 20 24 31 42 33 19
2 25 8 21 18 -4 10 2 17 15 21 11 2 22 13 25 24 3 10 13 22 23 26 9 3 40 28
68 55 28 26 54 48 59 48 4 0 7 9 7 20 0 13 11 25 33 34 17 7 48 31 68 52 35
39 119 112 145 127 8 4 14 14 14 22 0 8 11 17 25 21 14 3 29 11 33 18 4 6 14
16 24 21 9 6 43 31 76 57 58 45 102 73 102 65 0 -3 -43 -37 -95 -76 -53 -40
-100 -82 -106 -94 -6 -13 -29 -32 -52 -43 -23 -11 -42 -25 -42 -31 0 -5 -43
-50 -95 -98 -191 -177 -420 -410 -442 -449 -5 -9 -15 -16 -23 -16 -7 0 -21
-13 -32 -29 -10 -16 -51 -66 -90 -112 -80 -92 -89 -114 -45 -105 73 15 451 53
540 55 33 1 51 5 47 11 -8 14 24 25 36 13 20 -20 0 -39 -36 -35 -21 3 -35 0
-35 -7 0 -6 9 -11 20 -11 11 0 20 -4 20 -10 0 -5 9 -6 21 -2 22 8 56 72 39 72
-6 0 -10 4 -10 10 0 5 7 7 15 4 11 -5 15 1 15 20 0 14 5 26 11 26 5 0 8 4 4 9
-3 5 -1 12 5 16 14 8 53 86 47 92 -3 2 3 13 14 24 10 10 19 27 19 37 0 10 7
28 16 41 14 19 14 25 3 32 -11 7 -11 9 3 9 23 0 63 70 46 81 -10 7 -10 9 0 9
6 0 12 6 12 14 0 8 8 21 18 28 27 21 44 56 29 61 -7 3 -4 6 6 6 9 1 17 3 17 5
0 2 3 11 6 20 9 22 -19 21 -40 -2 -9 -11 -15 -29 -14 -41 2 -15 -6 -27 -24
-38 -36 -23 -45 -11 -18 24 12 15 28 43 36 62 11 26 18 32 35 28 29 -8 49 2
49 24 0 21 -20 25 -38 7 -14 -14 -16 0 -3 21 5 8 23 14 40 13 17 0 31 4 31 9
0 5 -13 9 -29 9 l-30 0 60 120 c33 66 66 138 74 161 14 40 14 41 -5 36 -11 -3
-18 -1 -14 4 15 25 -34 2 -138 -65 -151 -96 -228 -154 -228 -169 0 -20 -60
-61 -72 -49 -6 6 11 25 49 55 32 25 73 59 92 74 19 15 68 52 110 81 42 29 76
58 76 64 0 9 118 76 136 78 4 0 26 -9 50 -20z m-547 -369 c8 -12 -110 -125
-137 -131 -12 -3 -24 -16 -27 -30 -3 -13 -12 -26 -19 -28 -8 -3 -11 0 -7 6 3
6 2 12 -4 14 -6 2 6 20 26 40 20 21 40 36 44 33 13 -8 40 6 40 21 0 15 58 84
70 84 5 0 11 -4 14 -9z m1046 -196 c7 -8 18 -15 25 -15 20 0 37 -27 31 -47 -3
-10 -27 -35 -53 -54 -27 -20 -58 -56 -71 -80 -13 -24 -36 -62 -52 -84 -37 -51
-75 -124 -68 -130 8 -8 291 56 308 69 28 24 49 25 75 4 14 -11 29 -18 32 -14
12 12 43 -16 43 -39 0 -21 -83 -126 -117 -148 -7 -4 -13 -14 -13 -21 0 -7 -31
-50 -70 -95 -38 -46 -80 -101 -92 -122 -22 -39 -38 -50 -38 -26 0 8 -3 7 -9
-3 -6 -8 -7 -18 -4 -23 2 -4 2 -15 -2 -25 -4 -11 -8 -13 -13 -5 -4 7 -12 9
-17 5 -11 -8 -77 -142 -71 -142 15 0 36 14 36 24 0 6 14 17 31 25 17 7 34 23
39 35 19 50 141 136 227 161 30 9 57 14 59 12 7 -6 -150 -92 -163 -89 -7 2
-13 -4 -13 -13 0 -9 -36 -52 -79 -95 -44 -43 -114 -128 -157 -189 -42 -61 -83
-116 -90 -122 -22 -18 -54 7 -54 42 0 41 29 139 41 139 5 0 9 7 9 15 0 9 7 27
16 40 15 22 15 26 0 40 -9 9 -16 20 -16 25 0 14 30 0 30 -14 0 -6 5 -3 11 7 5
9 8 21 5 26 -3 5 6 21 19 35 14 15 25 33 25 40 0 24 31 76 46 76 8 0 14 10 14
24 0 14 5 28 10 31 6 3 10 11 10 17 0 6 -7 5 -17 -3 -15 -13 -15 -12 -3 10 12
23 13 24 26 6 13 -17 14 -16 24 9 5 15 47 84 93 154 46 70 87 133 91 141 14
22 -55 7 -124 -27 -32 -16 -82 -35 -110 -42 -49 -12 -52 -14 -85 -79 -40 -79
-95 -161 -95 -143 0 7 25 52 55 101 30 49 55 93 55 98 0 4 -8 13 -18 20 -16 9
-18 23 -17 80 2 88 25 163 72 240 82 134 138 180 173 138z m-1280 -22 c-1 -19
-16 -31 -29 -24 -7 5 -10 14 -7 20 8 12 36 15 36 4z m490 -12 c0 -12 -20 -25
-27 -18 -7 7 6 27 18 27 5 0 9 -4 9 -9z m1653 -39 c26 -23 21 -64 -15 -112
-56 -73 -130 -208 -122 -221 3 -5 71 -10 152 -10 l147 -2 -130 -11 c-71 -6
-123 -14 -115 -18 8 -3 -4 -7 -27 -7 -34 -1 -46 -6 -60 -28 -10 -14 -37 -47
-61 -71 -23 -25 -41 -50 -40 -56 4 -15 -49 -121 -68 -137 -13 -10 -17 -10 -26
2 -7 11 -11 11 -15 2 -2 -7 -13 -13 -23 -13 -26 0 -15 -36 13 -44 18 -4 19 -8
9 -18 -11 -11 -16 -9 -27 6 -11 15 -17 16 -28 8 -8 -7 -17 -9 -20 -5 -4 3 -7
-2 -7 -13 0 -10 -3 -30 -7 -43 -4 -17 -3 -22 6 -17 9 6 10 0 6 -21 l-6 -28 15
25 c8 14 15 34 16 45 0 14 7 21 23 22 21 2 21 1 3 -12 -10 -8 -16 -20 -13 -27
2 -7 0 -21 -5 -30 -7 -14 -4 -18 12 -18 20 0 26 -11 13 -23 -3 -4 -13 -1 -21
5 -11 10 -17 8 -29 -7 -7 -11 -16 -31 -19 -45 -3 -14 -12 -42 -20 -63 -16 -42
-18 -76 -5 -96 13 -20 101 12 165 60 28 22 54 39 58 39 4 0 28 23 55 51 39 42
51 49 71 44 14 -3 28 -2 31 2 14 20 101 95 101 87 0 -5 -38 -42 -84 -82 -47
-41 -83 -79 -80 -86 3 -7 -7 -25 -21 -40 -14 -15 -23 -31 -20 -35 11 -19 -206
-141 -250 -141 -25 0 -76 29 -112 63 -30 28 -33 36 -33 92 0 43 9 89 30 150
32 90 142 323 192 406 15 25 28 49 28 52 0 4 -20 4 -44 1 -55 -8 -92 1 -100
22 -4 9 -4 19 -2 22 3 2 46 11 97 18 64 10 96 19 105 31 19 26 158 285 162
303 2 8 13 22 25 31 24 20 93 15 120 -9z m-2184 9 c9 -6 10 -11 2 -15 -13 -8
-31 1 -31 15 0 11 11 11 29 0z m535 -23 c-3 -4 -14 -8 -25 -8 -11 0 -18 4 -15
8 2 4 14 8 25 8 11 0 17 -4 15 -8z m-551 -15 c-7 -2 -19 -2 -25 0 -7 3 -2 5
12 5 14 0 19 -2 13 -5z m-75 -82 c-31 -36 -51 -49 -76 -50 -10 -1 -10 4 -2 20
8 14 15 17 23 10 9 -7 19 -2 34 15 16 17 18 24 7 24 -17 0 -18 12 -3 27 9 9
16 9 30 0 16 -10 15 -13 -13 -46z m560 19 c-7 -11 -16 -20 -20 -20 -5 0 -8
-17 -8 -39 0 -36 -2 -38 -25 -33 -23 4 -24 7 -12 21 7 9 22 33 32 54 11 20 25
37 32 37 11 0 11 -4 1 -20z m-68 -142 c-1 -17 -39 -62 -46 -55 -8 7 24 67 36
67 6 0 10 -6 10 -12z m-53 -110 c-17 -41 -36 -48 -29 -11 6 33 21 55 33 47 5
-3 3 -19 -4 -36z m-657 -8 c0 -5 -9 -19 -21 -31 -17 -17 -23 -18 -36 -7 -15
12 -14 13 6 16 15 2 21 9 17 18 -3 9 1 14 14 14 11 0 20 -4 20 -10z m-128 -22
c-7 -7 -12 -8 -12 -2 0 14 12 26 19 19 2 -3 -1 -11 -7 -17z m1358 -133 c34
-17 70 -61 70 -84 0 -11 -9 -6 -28 15 -32 38 -61 54 -97 54 -33 0 -129 -27
-170 -48 -32 -16 -119 -26 -110 -12 3 5 27 21 53 36 81 47 227 67 282 39z
m123 -105 c-10 -18 -24 -44 -32 -58 -10 -19 -15 -21 -22 -11 -5 8 -9 11 -9 7
0 -3 -3 -14 -7 -24 -5 -12 -3 -15 6 -9 18 10 6 -25 -22 -71 -40 -64 -176 -233
-196 -243 -63 -34 -75 5 -18 61 24 25 67 78 96 119 108 156 149 209 153 197 3
-8 17 5 34 28 34 48 44 50 17 4z m-483 0 c-8 -5 -17 -7 -19 -4 -3 3 1 9 9 14
8 5 17 7 19 4 3 -3 -1 -9 -9 -14z m55 0 c-3 -5 -14 -10 -23 -10 -15 0 -15 2
-2 10 20 13 33 13 25 0z m-2537 -52 c-2 -25 -8 -34 -26 -36 -13 -2 -24 3 -28
12 -8 22 14 56 37 56 17 0 20 -5 17 -32z m1072 22 c-14 -4 -41 -8 -60 -8 l-35
0 30 8 c17 4 44 8 60 8 29 0 29 0 5 -8z m-2280 -12 c0 -32 -13 -88 -21 -88 -4
0 -9 15 -11 33 l-3 32 -82 3 c-93 3 -81 14 -103 -96 -18 -96 -22 -92 75 -92
69 0 85 -3 85 -15 0 -12 -17 -15 -89 -15 l-89 0 -6 -27 c-17 -86 -26 -167 -18
-175 5 -5 51 -7 102 -6 99 3 98 3 122 63 10 25 12 27 15 10 2 -11 0 -38 -5
-60 l-8 -40 -167 -3 c-102 -1 -167 1 -167 7 0 5 9 12 19 16 15 5 23 30 44 143
39 205 49 280 42 292 -3 5 -17 10 -31 10 -13 0 -24 5 -24 10 0 6 60 10 160 10
121 0 160 -3 160 -12z m2115 -8 c-44 -11 -75 -11 -75 0 0 6 23 9 53 9 44 -1
48 -2 22 -9z m2178 -10 c3 -12 0 -20 -7 -20 -6 0 -19 -12 -28 -27 -10 -16 -18
-23 -18 -17 0 6 10 24 21 39 18 22 20 29 8 36 -11 7 -11 9 2 9 9 0 19 -9 22
-20z m414 14 c-3 -3 -12 -4 -19 -1 -8 3 -5 6 6 6 11 1 17 -2 13 -5z m-1357
-29 c0 -8 -9 -15 -20 -15 -20 0 -26 11 -13 23 12 13 33 7 33 -8z m-10 -55 c0
-5 -6 -10 -14 -10 -8 0 -21 -18 -30 -41 -9 -22 -21 -37 -26 -34 -6 3 -5 16 2
33 18 42 68 81 68 52z m1607 -32 c-3 -8 -6 -5 -6 6 -1 11 2 17 5 13 3 -3 4
-12 1 -19z m-2487 2 c0 -5 -4 -10 -10 -10 -5 0 -10 5 -10 10 0 6 5 10 10 10 6
0 10 -4 10 -10z m1757 -22 c-3 -7 -5 -2 -5 12 0 14 2 19 5 13 2 -7 2 -19 0
-25z m-4016 -68 c-16 -74 -15 -74 35 -20 52 55 121 95 140 80 9 -8 9 -24 -1
-71 l-13 -61 51 50 c50 49 132 96 149 86 13 -8 10 -32 -23 -162 -17 -68 -28
-126 -25 -130 3 -3 18 0 32 7 42 19 38 7 -6 -23 -48 -31 -80 -34 -80 -7 0 11
14 72 30 136 38 146 32 160 -42 110 -49 -33 -88 -101 -108 -189 -14 -59 -21
-72 -38 -74 -27 -4 -27 2 -2 98 11 41 22 101 26 133 6 52 5 57 -12 57 -29 0
-94 -68 -120 -125 -12 -27 -28 -76 -35 -107 -11 -51 -15 -58 -36 -58 -19 0
-23 4 -19 18 15 46 45 192 48 227 3 42 -3 46 -47 30 -18 -7 -18 -6 -5 8 25 26
94 57 103 48 5 -5 4 -30 -2 -61z m574 4 l-6 -54 43 45 c46 49 112 79 139 64
36 -19 27 -136 -15 -217 -31 -59 -112 -112 -173 -112 l-41 0 -13 -90 c-12 -82
-15 -91 -36 -97 -13 -3 -25 -4 -27 -2 -2 2 14 87 34 189 20 102 40 209 44 238
6 47 5 52 -13 52 -11 0 -23 -4 -26 -10 -3 -5 -14 -10 -23 -10 -14 0 -13 2 3
14 42 29 99 55 108 49 5 -3 6 -29 2 -59z m405 28 c0 -15 -11 -70 -25 -122 -24
-93 -31 -140 -20 -140 4 0 19 7 35 15 45 23 36 3 -12 -28 -87 -56 -94 -36 -51
140 15 62 24 116 20 120 -4 4 -21 -1 -37 -11 -41 -23 -38 -6 3 20 74 49 87 50
87 6z m362 -7 c-4 -31 -7 -34 -29 -29 -47 12 -108 -75 -134 -191 -13 -62 -22
-75 -51 -75 -14 0 -15 5 -3 43 19 65 48 237 41 244 -4 4 -21 -1 -39 -11 l-32
-17 35 31 c35 31 76 48 87 36 4 -3 2 -32 -4 -64 -6 -31 -10 -58 -8 -60 1 -1
17 20 35 48 58 90 110 113 102 45z m286 23 c6 -6 12 -24 12 -40 0 -41 -48 -83
-118 -105 -65 -19 -82 -35 -82 -77 0 -63 63 -86 128 -46 39 24 49 25 31 4 -22
-27 -86 -54 -128 -54 -48 0 -81 35 -81 85 0 55 37 159 67 187 58 55 133 75
171 46z m3102 -8 c0 -5 -5 -10 -11 -10 -5 0 -7 5 -4 10 3 6 8 10 11 10 2 0 4
-4 4 -10z m-39 -97 c-12 -20 -14 -14 -5 12 4 9 9 14 11 11 3 -2 0 -13 -6 -23z
m-2614 -110 c-4 -3 -2 -12 4 -20 9 -10 8 -13 -5 -13 -9 0 -16 6 -16 13 0 14 9
27 18 27 3 0 2 -3 -1 -7z m-56 -40 c-5 -10 -17 -27 -26 -38 -16 -19 -17 -19
-3 5 26 46 29 50 34 50 3 0 0 -8 -5 -17z"/>
<path d="M7028 4173 c7 -3 16 -2 19 1 4 3 -2 6 -13 5 -11 0 -14 -3 -6 -6z"/>
<path d="M5995 3700 c-3 -6 1 -7 9 -4 18 7 21 14 7 14 -6 0 -13 -4 -16 -10z"/>
<path d="M6630 3115 c-7 -9 -8 -15 -2 -15 5 0 12 7 16 15 3 8 4 15 2 15 -2 0
-9 -7 -16 -15z"/>
<path d="M6375 2720 c-3 -5 -1 -10 4 -10 6 0 11 5 11 10 0 6 -2 10 -4 10 -3 0
-8 -4 -11 -10z"/>
<path d="M7195 2710 c3 -5 8 -10 11 -10 2 0 4 5 4 10 0 6 -5 10 -11 10 -5 0
-7 -4 -4 -10z"/>
<path d="M7162 2660 c-28 -27 -28 -40 1 -39 12 0 16 3 10 6 -18 7 -16 23 2 23
8 0 15 7 15 15 0 19 -2 19 -28 -5z"/>
<path d="M7138 2603 c7 -3 16 -2 19 1 4 3 -2 6 -13 5 -11 0 -14 -3 -6 -6z"/>
<path d="M6120 2452 c0 -10 -5 -23 -12 -30 -7 -7 -8 -12 -3 -12 4 0 1 -8 -7
-17 -9 -10 -19 -29 -22 -43 -6 -23 -6 -23 5 -5 7 11 25 31 40 45 22 20 27 31
22 53 -6 30 -23 37 -23 9z"/>
<path d="M6003 2318 c-6 -7 -41 -67 -78 -133 -38 -66 -79 -138 -93 -160 -14
-22 -27 -53 -29 -70 -1 -16 -10 -35 -19 -42 -19 -14 -46 -63 -35 -63 4 0 12 5
19 12 9 9 12 8 12 -6 0 -10 5 -14 11 -10 6 3 8 15 6 26 -6 21 1 32 43 75 l25
26 -27 -5 c-16 -3 -28 -3 -28 0 0 3 15 23 33 46 18 23 48 70 66 106 19 36 41
76 51 90 41 59 77 151 43 108z"/>
<path d="M6030 2295 c-10 -12 -10 -15 3 -15 8 0 20 7 27 15 10 12 10 15 -3 15
-8 0 -20 -7 -27 -15z"/>
<path d="M5990 2219 c0 -5 5 -7 10 -4 6 3 10 8 10 11 0 2 -4 4 -10 4 -5 0 -10
-5 -10 -11z"/>
<path d="M5966 2184 c-11 -28 -6 -39 9 -20 8 11 15 23 15 28 0 14 -18 9 -24
-8z"/>
<path d="M5990 2160 c-6 -12 -22 -25 -36 -30 -13 -5 -24 -16 -24 -25 0 -20 20
-19 37 3 19 23 45 72 39 72 -3 0 -10 -9 -16 -20z"/>
<path d="M8950 3265 c-7 -9 -8 -15 -2 -15 5 0 12 7 16 15 3 8 4 15 2 15 -2 0
-9 -7 -16 -15z"/>
<path d="M8872 3143 c-17 -24 -131 -229 -162 -292 -25 -50 -32 -70 -29 -79 2
-6 52 80 111 191 102 189 127 245 80 180z"/>
<path d="M8880 3058 c0 -24 16 -39 34 -32 16 6 16 8 0 25 -20 22 -34 25 -34 7z"/>
<path d="M8856 2986 c-19 -30 -21 -49 -4 -44 11 4 31 58 24 65 -2 2 -11 -8
-20 -21z"/>
<path d="M9006 2646 c-18 -29 -11 -33 18 -11 14 11 17 18 9 26 -7 7 -15 2 -27
-15z"/>
<path d="M4754 2731 c-43 -26 -78 -76 -97 -136 -29 -95 -29 -101 -1 -113 36
-17 58 -15 86 8 47 37 100 200 78 241 -13 24 -27 24 -66 0z"/>
<path d="M5607 2740 c-24 -19 -63 -108 -52 -118 12 -12 86 21 109 49 28 33 33
58 14 77 -17 17 -42 15 -71 -8z"/>
</g>
</svg>
