<?xml version="1.0" standalone="no"?>
<!DOCTYPE svg PUBLIC "-//W3C//DTD SVG 20010904//EN"
 "http://www.w3.org/TR/2001/REC-SVG-20010904/DTD/svg10.dtd">
<svg version="1.0" xmlns="http://www.w3.org/2000/svg"
 width="3437.000000pt" height="1777.000000pt" viewBox="0 0 3437.000000 1777.000000"
 preserveAspectRatio="xMidYMid meet">

<g transform="translate(0.000000,1777.000000) scale(0.100000,-0.100000)"
fill="#000000" stroke="none">
<path d="M22155 11809 c-33 -5 -188 -11 -345 -13 -245 -3 -413 -15 -470 -31
-8 -3 -78 -11 -155 -20 -249 -27 -939 -148 -976 -171 -9 -5 -7 -10 5 -20 17
-12 17 -13 -1 -22 -33 -18 -184 -43 -201 -33 -11 6 5 11 54 16 69 7 104 19
104 34 0 48 -1414 -311 -1780 -453 l-55 -21 45 -5 45 -5 -61 -23 c-34 -13 -78
-27 -99 -32 -33 -8 -36 -7 -32 11 3 12 0 19 -8 19 -34 0 -613 -212 -671 -246
-22 -13 -72 -35 -110 -48 -95 -33 -104 -37 -104 -46 0 -5 12 -10 28 -12 l27
-4 -35 -17 c-31 -14 -36 -14 -47 -1 -9 13 -17 14 -53 3 -41 -12 -41 -13 -21
-28 20 -15 16 -18 -94 -76 -63 -33 -125 -66 -138 -73 -14 -8 -41 -11 -77 -7
-50 5 -53 4 -36 -9 28 -22 12 -35 -101 -86 -103 -46 -502 -271 -663 -373 -204
-130 -446 -298 -535 -372 -27 -23 -77 -61 -110 -85 -33 -24 -109 -85 -170
-135 -60 -50 -134 -109 -163 -129 -50 -36 -296 -302 -408 -441 -61 -75 -132
-210 -170 -320 -22 -65 -28 -99 -28 -180 -1 -90 2 -106 27 -158 16 -31 54 -84
85 -116 100 -102 232 -165 448 -211 74 -16 140 -32 146 -36 11 -7 377 -26 476
-25 24 0 66 11 95 25 l52 24 -168 1 -167 1 6 25 c7 30 7 30 -42 9 -49 -21
-236 -14 -263 9 -9 8 -65 26 -124 40 -76 18 -148 45 -239 89 -144 69 -180 100
-238 209 -32 60 -32 64 -27 153 3 61 13 113 29 156 31 85 123 239 196 332 87
109 505 507 591 563 39 25 77 55 84 66 7 11 49 45 94 76 62 41 89 54 106 49
18 -4 52 14 148 78 241 161 726 451 919 548 107 55 204 108 216 119 11 10 56
30 100 43 43 13 223 87 399 166 394 174 491 213 595 240 46 12 129 39 187 61
57 21 116 39 133 39 16 0 44 9 62 19 35 21 152 51 197 51 16 0 46 14 72 34 33
25 61 37 113 45 37 7 98 23 134 37 36 13 108 31 160 40 51 8 110 21 130 29 20
7 62 16 94 19 84 9 91 13 71 42 -19 29 -12 40 15 25 44 -23 159 -8 312 41 52
16 157 40 233 53 75 13 190 35 255 49 64 14 164 33 221 41 57 9 138 25 180 36
42 11 128 24 191 29 67 4 142 17 180 29 36 11 83 21 105 21 22 0 72 7 110 15
169 35 744 60 1015 44 102 -6 248 -14 325 -19 77 -4 185 -13 239 -19 109 -13
141 -4 87 23 -17 9 -37 29 -45 45 -8 15 -28 33 -43 38 -88 32 -237 76 -298 88
-64 13 -276 37 -300 34 -5 -1 -37 -6 -70 -10z m-1860 -259 c-3 -5 -16 -10 -28
-9 -21 0 -21 1 -2 9 28 12 37 12 30 0z m-331 -65 c16 -12 17 -15 4 -15 -8 0
-31 -3 -49 -7 l-34 -6 19 21 c22 26 34 27 60 7z m-230 -50 c-4 -8 -17 -15 -30
-15 -30 0 -31 8 -1 20 32 13 37 12 31 -5z m-228 -60 c-18 -14 -66 -21 -66 -10
0 5 57 23 75 24 6 0 1 -6 -9 -14z m-131 -34 c-6 -4 -32 -16 -60 -24 l-50 -17
28 25 c17 15 40 25 60 25 18 0 27 -4 22 -9z m-265 -76 c-28 -16 -120 -21 -104
-6 11 11 45 18 94 19 l35 1 -25 -14z m-127 -36 c-14 -14 -78 -29 -123 -28 -49
0 -19 16 52 28 78 13 84 13 71 0z m-289 -78 c7 -10 -33 -23 -46 -15 -5 3 -6
10 -3 15 8 12 42 12 49 0z m-114 -31 c0 -15 -27 -23 -47 -15 -17 7 -16 8 2 15
28 12 45 12 45 0z m140 -40 c0 -5 -7 -7 -15 -4 -8 4 -15 8 -15 10 0 2 7 4 15
4 8 0 15 -4 15 -10z m-572 -108 c8 -6 -7 -14 -43 -24 -51 -14 -55 -14 -55 2 0
9 3 20 7 23 9 10 75 8 91 -1z m-203 -71 c-17 -14 -245 -91 -245 -82 0 12 143
69 200 80 25 5 47 9 50 10 2 1 0 -3 -5 -8z m-355 -136 c-14 -17 -30 -20 -30
-6 0 5 8 12 18 14 9 3 19 5 21 6 2 0 -2 -6 -9 -14z m-130 -55 c-20 -13 -40
-13 -40 0 0 6 12 10 28 10 21 0 24 -2 12 -10z m-1110 -650 c0 -5 -14 -10 -31
-10 -17 0 -28 4 -24 10 3 6 17 10 31 10 13 0 24 -4 24 -10z m-190 -110 c0 -15
-71 -59 -86 -53 -21 8 -6 23 22 23 13 0 24 6 24 13 0 7 5 18 12 25 12 12 28 7
28 -8z"/>
<path d="M20870 11347 c-107 -47 -291 -143 -320 -168 -24 -20 -24 -21 -2 -15
12 3 31 9 42 12 39 12 11 -21 -48 -57 -94 -56 -392 -278 -460 -341 -35 -32
-88 -73 -118 -90 -31 -17 -65 -44 -77 -60 -12 -16 -35 -36 -52 -43 -45 -19
-181 -138 -164 -143 8 -3 24 -13 35 -24 21 -19 22 -19 99 44 43 35 86 69 97
77 17 13 18 15 2 32 -10 11 -15 20 -13 22 2 2 27 21 54 44 85 69 328 233 651
439 196 124 234 144 276 144 l33 0 -25 -20 c-14 -10 -56 -36 -95 -57 -38 -21
-85 -54 -105 -74 -19 -20 -53 -45 -75 -57 -41 -21 -80 -50 -185 -139 -36 -32
-71 -53 -85 -53 -18 0 -25 -7 -30 -30 -5 -22 -14 -32 -33 -36 -85 -19 -144
-56 -146 -93 -1 -26 -127 -138 -164 -147 -40 -10 -48 -17 -27 -24 16 -5 8 -14
-43 -50 -34 -24 -62 -49 -62 -55 0 -6 -22 -19 -49 -28 -42 -16 -47 -21 -43
-42 3 -18 -5 -32 -34 -59 -22 -20 -42 -36 -46 -36 -4 0 -28 -18 -53 -40 -25
-22 -52 -40 -60 -40 -7 0 -15 -7 -19 -15 -3 -9 -18 -15 -35 -15 -16 0 -37 -7
-46 -16 -16 -16 -16 -28 -1 -64 4 -10 -6 -23 -31 -40 -21 -14 -75 -61 -119
-105 -148 -145 -173 -165 -202 -165 -41 0 -77 -41 -74 -85 2 -30 -1 -37 -23
-45 -15 -6 -36 -10 -48 -10 -11 0 -31 -10 -44 -22 l-23 -22 27 -28 27 -28 -52
0 c-28 0 -61 -5 -74 -11 -32 -14 -89 -105 -95 -150 -5 -34 -10 -39 -47 -51
-33 -10 -43 -19 -51 -45 -5 -18 -17 -36 -27 -39 -21 -6 -23 -15 -6 -32 9 -9 8
-12 -3 -15 -86 -23 -103 -33 -122 -70 -17 -33 -78 -87 -99 -87 -4 0 -5 13 -2
29 3 16 1 31 -4 35 -6 3 -49 -13 -96 -36 -73 -37 -85 -47 -86 -69 0 -14 -11
-36 -25 -49 -21 -19 -27 -21 -40 -10 -18 15 -17 15 -68 -57 l-37 -52 51 -16
c60 -17 75 -12 54 18 -8 12 -15 33 -15 48 0 25 2 26 76 33 42 4 79 5 82 2 6
-6 -21 -49 -48 -76 -10 -10 -24 -37 -30 -58 -7 -29 -18 -43 -40 -52 -28 -12
-85 -67 -162 -159 -36 -42 -39 -43 -56 -28 -10 10 -23 17 -28 17 -13 0 -100
-85 -152 -149 l-44 -52 -84 3 c-60 2 -84 6 -84 15 0 20 -14 15 -44 -16 -15
-15 -60 -41 -99 -56 -209 -81 -219 -90 -231 -205 -6 -63 -5 -68 26 -109 30
-41 33 -43 70 -37 l40 7 -7 -33 -8 -33 42 38 c22 20 47 37 55 37 29 0 116 -24
116 -31 0 -5 -13 -15 -30 -24 -35 -18 -64 -68 -55 -95 4 -13 0 -22 -14 -29
-16 -9 -21 -7 -27 12 -3 12 -11 28 -17 35 -14 18 -47 -33 -47 -75 0 -23 -6
-33 -20 -38 -11 -3 -49 -38 -85 -78 -65 -71 -66 -75 -48 -124 3 -7 -8 -17 -23
-23 -16 -5 -38 -15 -49 -22 -11 -6 -38 -17 -60 -24 l-40 -12 43 -18 c23 -9 42
-21 42 -26 0 -30 -55 -98 -79 -98 -17 -1 -93 -68 -109 -97 -7 -11 -7 -26 0
-42 7 -20 6 -28 -7 -37 -11 -8 -15 -20 -10 -33 5 -17 0 -21 -40 -27 -42 -6
-49 -4 -76 22 -30 28 -31 28 -45 10 -27 -37 -9 -66 40 -66 l31 0 -28 -25 c-15
-14 -27 -34 -27 -45 0 -22 31 -34 62 -24 20 6 21 5 9 -10 -7 -9 -26 -16 -41
-16 -34 0 -42 -8 -28 -29 8 -13 6 -27 -7 -55 -20 -41 -59 -66 -104 -66 -16 0
-36 -7 -45 -15 -18 -18 -30 -19 -55 -3 -26 16 -39 4 -85 -75 -20 -34 -45 -73
-56 -87 -18 -23 -19 -24 -37 -7 -11 9 -33 20 -50 23 -30 6 -30 5 -36 -43 -3
-26 -9 -59 -13 -73 -6 -23 -3 -22 33 13 58 55 66 47 32 -35 -31 -76 -49 -98
-82 -98 -17 0 -19 5 -13 39 4 28 2 42 -9 51 -13 11 -15 8 -15 -20 0 -24 -15
-49 -61 -106 -33 -41 -65 -90 -70 -108 -5 -19 -27 -52 -49 -75 -25 -26 -40
-50 -40 -67 0 -30 -18 -66 -59 -118 -17 -21 -36 -56 -41 -77 -7 -24 -23 -48
-40 -61 -19 -13 -30 -31 -30 -46 0 -31 -11 -50 -77 -135 -57 -74 -92 -136
-112 -199 -7 -20 -23 -52 -35 -71 -13 -19 -29 -52 -36 -73 -7 -22 -29 -70 -50
-109 -21 -38 -49 -97 -61 -130 -19 -52 -20 -60 -7 -69 14 -8 13 -13 -4 -42
-10 -18 -25 -35 -33 -38 -7 -2 -39 -57 -71 -121 -55 -113 -56 -118 -52 -183
10 -141 93 -225 261 -268 62 -15 67 -15 109 3 31 14 54 36 81 74 54 79 126
277 159 434 5 28 28 91 49 140 21 50 50 122 65 160 14 39 43 102 64 140 20 39
52 113 70 165 20 59 43 106 60 125 32 33 50 74 50 110 0 13 11 37 25 53 14 17
25 39 25 51 0 11 18 48 41 83 22 35 66 108 96 163 30 55 73 132 94 170 22 39
53 82 69 96 20 17 30 35 30 55 1 42 30 102 78 157 23 27 42 56 42 65 0 27 27
60 71 88 22 14 44 37 50 52 6 15 34 68 64 117 30 50 58 109 64 133 6 29 22 56
51 85 24 23 54 65 69 93 39 77 97 161 120 173 11 6 22 19 26 29 3 11 16 24 30
30 16 8 27 25 35 54 20 79 32 98 101 159 55 48 76 76 104 135 19 40 35 76 35
79 0 3 -12 5 -26 5 -40 0 -25 21 39 55 42 22 68 46 102 92 47 66 67 81 112 87
15 2 66 15 113 30 46 15 132 33 190 41 58 8 177 35 265 60 88 26 207 56 265
67 58 10 147 32 199 49 52 16 117 32 145 35 28 4 62 12 76 19 14 7 77 18 140
24 63 7 159 18 212 26 168 25 206 19 223 -36 6 -18 9 -19 29 -6 12 8 50 18 84
22 l62 7 0 -32 c0 -31 -1 -32 -40 -28 -24 2 -41 -1 -44 -8 -6 -16 3 -24 26
-24 10 0 18 -6 18 -14 0 -23 -72 -216 -80 -216 -4 0 -19 9 -34 21 l-26 20 35
33 c28 26 35 41 35 70 0 20 -3 36 -7 36 -5 0 -14 4 -21 9 -12 7 -11 14 2 38
27 54 -4 59 -59 9 -32 -30 -35 -37 -26 -55 9 -15 21 -21 46 -21 39 0 42 -7 19
-36 -11 -13 -17 -15 -20 -6 -10 22 -33 13 -80 -30 -43 -40 -45 -43 -42 -92 3
-45 5 -51 23 -47 11 2 33 3 48 3 20 1 26 5 23 14 -4 8 -9 21 -12 29 -12 29 25
16 41 -15 21 -41 19 -81 -9 -131 -13 -24 -38 -92 -55 -151 -16 -59 -35 -117
-41 -128 -6 -11 -31 -25 -58 -33 -43 -13 -47 -17 -50 -48 l-4 -34 24 23 c26
23 53 29 63 12 3 -5 -1 -10 -9 -10 -21 0 -48 -43 -45 -72 1 -12 1 -36 1 -51
l-2 -28 -57 7 c-54 6 -57 6 -44 -10 8 -10 31 -26 50 -36 32 -16 34 -19 17 -26
-14 -5 -24 -1 -37 14 -9 12 -24 22 -33 22 -9 0 -21 11 -26 25 -12 31 -15 31
-57 -1 -25 -19 -33 -33 -33 -57 -1 -18 -7 -43 -15 -57 -8 -14 -14 -39 -15 -56
0 -17 -12 -53 -27 -80 -15 -29 -29 -74 -33 -109 -5 -43 -17 -77 -44 -120 -40
-66 -51 -108 -41 -153 5 -25 15 -33 65 -51 33 -12 82 -41 110 -64 96 -78 111
-87 155 -87 84 0 142 69 154 183 5 42 16 78 36 112 58 97 219 311 304 402 130
139 164 181 166 208 2 13 13 38 24 54 12 16 21 37 21 47 0 10 11 34 23 53 13
20 31 48 41 64 16 26 18 27 46 12 39 -20 57 -20 39 1 -11 13 -1 27 73 98 78
76 85 86 80 115 l-5 33 -36 -36 c-20 -20 -73 -53 -118 -75 -62 -30 -89 -50
-115 -84 -33 -45 -175 -153 -186 -142 -3 3 32 44 78 90 82 82 83 84 59 93 -30
12 -51 2 -74 -35 -9 -15 -57 -67 -106 -115 -85 -83 -149 -128 -184 -128 -28 0
-16 19 25 40 39 20 40 22 40 74 0 35 -5 58 -15 66 -22 19 -18 28 10 22 16 -3
25 0 23 7 -2 6 8 17 22 24 18 9 25 21 26 45 0 17 14 53 31 79 17 26 36 68 43
93 7 25 18 57 26 72 9 17 10 29 4 33 -5 3 8 30 31 60 28 38 42 68 48 104 5 35
17 61 35 80 33 34 33 38 -5 46 l-31 7 59 57 c47 45 62 67 77 114 17 53 17 60
2 76 -14 16 -13 18 14 35 17 9 30 23 30 31 0 8 14 22 30 32 32 19 36 33 19 64
-8 17 -2 31 36 85 37 52 43 65 31 70 -23 9 -19 21 12 38 15 8 21 15 15 16 -24
0 -13 17 28 44 34 23 40 32 37 56 -2 21 5 37 24 57 15 15 38 48 52 72 23 42
24 46 10 74 -9 16 -14 30 -12 31 2 1 15 7 30 14 17 7 34 26 43 49 9 21 27 49
40 63 13 14 27 39 30 55 10 47 27 85 36 85 5 0 9 9 9 19 0 10 18 41 40 67 22
27 39 53 37 59 -2 5 -18 14 -35 20 -42 12 -40 21 6 29 65 12 71 16 82 56 6 22
22 53 37 70 20 24 24 38 20 65 -5 29 -2 34 20 40 21 5 24 10 19 30 -5 21 -1
27 30 40 19 8 33 19 29 25 -3 6 1 24 9 42 9 17 16 39 16 48 0 9 11 27 25 40
25 24 102 145 143 226 12 23 33 56 49 74 26 31 52 78 229 416 l74 141 -14 47
c-8 26 -25 63 -38 82 -22 33 -88 74 -118 74 -8 0 -30 15 -50 34 -32 32 -200
112 -255 122 -11 2 -54 -11 -95 -29z m20 -355 c-39 -92 -82 -185 -94 -207 -13
-22 -36 -74 -51 -115 -16 -41 -43 -93 -62 -114 -18 -22 -33 -48 -33 -59 0 -10
-11 -32 -25 -49 -14 -16 -25 -35 -25 -42 0 -8 -9 -25 -21 -40 -32 -41 -17 -49
73 -41 75 7 80 6 76 -11 -3 -16 -13 -19 -69 -19 -78 0 -110 -17 -140 -76 -11
-23 -19 -43 -16 -45 2 -2 24 6 48 20 24 13 55 26 69 29 24 6 25 4 24 -39 -1
-53 -7 -61 -68 -79 -43 -13 -46 -13 -46 4 0 13 -9 20 -30 23 -25 4 -33 -1 -55
-33 -14 -21 -30 -60 -37 -86 -8 -31 -37 -81 -82 -141 -56 -75 -67 -95 -55
-103 17 -10 43 -4 88 24 l34 20 -24 10 c-15 6 -19 11 -11 14 7 3 21 -2 31 -11
17 -15 19 -15 32 0 7 9 23 20 34 24 18 7 21 14 17 40 -4 28 -6 30 -21 15 -10
-8 -20 -15 -23 -15 -6 0 -5 6 6 62 7 31 120 130 141 122 23 -9 24 -29 5 -72
-17 -38 -23 -42 -54 -42 -46 0 -55 -17 -17 -33 l30 -13 -24 -29 c-13 -17 -24
-37 -25 -45 0 -17 -49 -59 -98 -84 -33 -17 -33 -18 -16 -37 23 -25 9 -53 -26
-54 -36 0 -36 -24 -1 -31 17 -4 31 -10 31 -13 0 -4 -13 -27 -28 -52 -15 -24
-34 -59 -41 -77 -16 -38 -51 -65 -73 -57 -8 3 -21 -1 -28 -10 -15 -18 -43 -19
-69 -3 -26 16 -46 -2 -79 -70 -14 -30 -31 -56 -39 -59 -7 -3 -13 -18 -13 -33
0 -15 -7 -33 -16 -41 -9 -7 -29 -33 -46 -57 l-31 -45 45 7 c43 6 47 5 72 -26
14 -18 32 -40 40 -48 12 -13 8 -29 -33 -120 -46 -100 -50 -106 -96 -129 l-49
-25 28 -9 c39 -13 31 -42 -12 -41 -36 2 -42 -17 -17 -49 10 -14 11 -26 3 -49
-10 -27 -14 -29 -44 -24 -26 5 -35 3 -43 -13 -9 -17 -6 -20 24 -25 l34 -7 -28
-45 c-16 -24 -32 -61 -35 -82 -13 -73 -14 -74 -42 -55 -25 16 -26 15 -48 -12
-27 -33 -46 -27 -46 15 0 32 -15 48 -24 25 -8 -22 -29 -18 -56 9 l-23 25 26 6
c14 4 61 5 104 3 l78 -3 3 40 c1 26 -4 48 -16 63 -16 20 -21 21 -52 11 -50
-17 -55 -24 -36 -54 l17 -25 -113 2 c-141 2 -347 -13 -638 -47 -124 -14 -288
-33 -365 -40 -77 -8 -224 -25 -328 -39 -103 -15 -196 -26 -207 -26 -28 0 -26
29 4 71 14 19 44 62 67 96 23 34 53 67 66 74 14 7 33 29 43 49 10 19 57 73
105 120 59 58 98 107 123 154 32 62 41 71 88 92 38 17 58 33 74 61 12 21 35
48 51 58 17 11 37 35 46 54 9 18 42 54 74 80 38 30 67 63 83 96 17 35 50 72
111 125 99 85 213 200 235 236 8 13 18 24 23 24 5 0 59 50 120 111 62 61 157
150 212 198 55 47 156 140 225 207 69 66 169 155 223 198 97 77 122 109 53 66
-66 -40 -58 -15 13 43 57 47 75 56 95 51 19 -5 35 3 70 32 27 22 46 47 46 59
0 28 88 117 190 193 47 34 104 77 126 95 93 72 250 182 298 208 l51 28 3 -25
c2 -14 -26 -94 -68 -192z m-170 -538 c0 -9 -5 -14 -12 -12 -18 6 -21 28 -4 28
9 0 16 -7 16 -16z m-5 -424 c3 -5 -1 -10 -10 -10 -9 0 -13 5 -10 10 3 6 8 10
10 10 2 0 7 -4 10 -10z m-75 -164 c0 -11 -19 -15 -25 -6 -3 5 1 10 9 10 9 0
16 -2 16 -4z m-40 -116 c0 -5 -10 -10 -22 -10 -19 0 -20 2 -8 10 19 13 30 13
30 0z m-155 -250 c3 -5 -3 -10 -15 -10 -12 0 -18 5 -15 10 3 6 10 10 15 10 5
0 12 -4 15 -10z m-195 -116 c0 -30 -20 -52 -57 -65 -34 -11 -36 -13 -15 -20
29 -11 31 -43 2 -34 -18 6 -20 2 -20 -37 0 -46 -27 -115 -53 -136 -9 -8 -25
-11 -37 -7 -20 6 -21 12 -16 78 11 131 12 135 44 162 18 15 32 32 32 39 0 11
30 20 113 35 4 0 7 -6 7 -15z m-1465 -24 c-3 -5 -11 -10 -16 -10 -6 0 -7 5 -4
10 3 6 11 10 16 10 6 0 7 -4 4 -10z m-456 -427 c-45 -75 -45 -75 -58 -59 -18
21 -5 51 32 75 46 30 52 26 26 -16z m1611 -383 c0 -5 -4 -10 -10 -10 -5 0 -10
5 -10 10 0 6 5 10 10 10 6 0 10 -4 10 -10z m-2094 -167 c-9 -37 -66 -85 -66
-55 0 9 59 82 67 82 3 0 2 -12 -1 -27z m1944 -183 c0 -11 -7 -20 -15 -20 -13
0 -14 4 -5 20 6 11 13 20 15 20 3 0 5 -9 5 -20z m-2340 -479 c0 -20 -17 -31
-38 -23 -10 3 -9 8 4 23 22 24 34 24 34 0z m2710 -31 c0 -5 -4 -10 -10 -10 -5
0 -10 5 -10 10 0 6 5 10 10 10 6 0 10 -4 10 -10z m-3011 -382 c-5 -18 -16 -39
-24 -47 -14 -14 -15 -12 -9 19 7 36 21 60 35 60 4 0 3 -14 -2 -32z m2118 -74
c-3 -3 -12 -4 -19 -1 -8 3 -5 6 6 6 11 1 17 -2 13 -5z m37 -52 c3 -5 -3 -33
-12 -63 -14 -46 -17 -50 -20 -26 -2 19 -9 27 -23 27 -17 0 -20 -6 -17 -32 3
-28 6 -33 27 -30 16 3 22 -1 19 -10 -3 -8 -24 -14 -51 -16 -47 -3 -47 -3 -47
28 0 25 11 43 48 80 46 47 66 58 76 42z m-95 -198 c-14 -14 -20 -14 -50 0
l-34 14 50 1 c45 1 48 0 34 -15z m-2419 -238 c0 -3 -4 -8 -10 -11 -5 -3 -10
-1 -10 4 0 6 5 11 10 11 6 0 10 -2 10 -4z m-312 -128 c7 -7 12 -26 12 -43 0
-17 7 -41 16 -54 15 -21 15 -25 -3 -49 -11 -15 -55 -51 -97 -81 -43 -29 -73
-56 -68 -60 7 -4 6 -17 -3 -39 -18 -41 -37 -43 -25 -1 5 16 7 36 4 42 -7 20
63 95 96 102 41 9 38 25 -5 25 -42 0 -47 20 -10 44 14 9 29 33 36 58 6 24 13
49 15 56 4 15 17 15 32 0z m-308 -371 c0 -19 -79 -169 -147 -277 -88 -142
-158 -268 -205 -367 -22 -48 -67 -119 -98 -158 -31 -38 -79 -100 -108 -137
-28 -37 -53 -64 -56 -60 -2 4 44 86 103 182 59 96 152 256 206 355 203 372
305 526 305 462z m125 -47 c17 -28 -64 -95 -106 -88 -19 3 -19 4 -1 37 26 48
90 79 107 51z m-115 -135 c11 -13 8 -15 -14 -15 -25 0 -33 10 -19 23 10 11 19
8 33 -8z m-51 -89 c10 -11 7 -17 -10 -29 -36 -25 -67 1 -37 31 16 16 33 15 47
-2z m-43 -80 c3 -8 1 -23 -5 -34 -16 -30 -81 -105 -81 -93 0 25 23 117 32 129
14 16 47 15 54 -2z m22 -103 c-18 -36 -50 -84 -70 -106 -21 -22 -38 -48 -38
-58 0 -24 -16 -32 -46 -25 -23 6 -25 11 -22 49 3 37 7 43 33 51 78 23 86 29
112 80 36 72 56 101 61 87 2 -6 -11 -41 -30 -78z m-220 -275 c-2 -6 -10 -14
-16 -16 -7 -2 -10 2 -6 12 7 18 28 22 22 4z m-168 -243 c0 -20 -8 -28 -40 -41
-44 -18 -64 -46 -75 -107 -7 -34 -10 -37 -42 -37 l-34 0 25 -43 c25 -42 25
-44 8 -77 -25 -50 -42 -50 -42 -1 0 34 -3 41 -19 41 -11 0 -29 -13 -41 -30
-12 -16 -26 -30 -31 -30 -16 0 -9 33 12 56 12 13 24 38 28 56 5 22 18 40 41
55 54 35 68 52 75 93 9 55 49 88 108 89 22 1 27 -3 27 -24z m130 -38 c0 -2 -9
-12 -20 -22 -19 -18 -20 -17 -20 3 0 15 6 22 20 22 11 0 20 -2 20 -3z"/>
<path d="M20243 9730 c-17 -7 -23 -18 -23 -39 0 -16 4 -33 10 -36 17 -10 70
37 70 62 0 25 -18 29 -57 13z"/>
<path d="M20206 9594 c-22 -22 -13 -31 40 -39 26 -3 53 -9 60 -12 10 -4 12 0
8 12 -5 11 -1 21 9 27 10 5 17 13 17 18 0 15 -28 12 -56 -7 -25 -16 -27 -16
-36 0 -11 21 -22 21 -42 1z"/>
<path d="M20157 9523 c-4 -3 -7 -11 -7 -17 0 -6 5 -5 12 2 6 6 9 14 7 17 -3 3
-9 2 -12 -2z"/>
<path d="M20195 9472 c-45 -7 -50 -15 -15 -23 39 -8 43 -7 38 13 -1 7 -12 12
-23 10z"/>
<path d="M19933 9075 c-8 -21 -2 -24 25 -14 13 5 20 13 17 19 -9 15 -35 12
-42 -5z"/>
<path d="M19878 8981 c-21 -33 -38 -66 -38 -75 0 -9 -6 -25 -12 -36 -9 -14 -9
-23 -2 -30 16 -16 43 -1 61 34 8 17 31 50 50 74 l35 43 -23 25 c-12 13 -25 24
-28 23 -3 0 -23 -26 -43 -58z"/>
<path d="M19980 8930 c0 -5 5 -10 10 -10 6 0 10 5 10 10 0 6 -4 10 -10 10 -5
0 -10 -4 -10 -10z"/>
<path d="M19940 8855 c0 -8 7 -15 16 -15 14 0 14 3 4 15 -7 8 -14 15 -16 15
-2 0 -4 -7 -4 -15z"/>
<path d="M19788 8790 c-28 -17 -59 -76 -53 -102 3 -13 -1 -41 -10 -62 -9 -21
-14 -41 -11 -43 6 -6 76 43 88 61 4 6 5 13 2 17 -2 4 5 28 17 53 29 67 14 103
-33 76z"/>
<path d="M20086 9201 c-4 -7 -5 -15 -2 -18 9 -9 19 4 14 18 -4 11 -6 11 -12 0z"/>
<path d="M20095 9160 c3 -5 11 -10 16 -10 6 0 7 5 4 10 -3 6 -11 10 -16 10 -6
0 -7 -4 -4 -10z"/>
<path d="M20456 11119 c-15 -12 -25 -23 -22 -26 5 -6 63 24 71 37 11 18 -22
11 -49 -11z"/>
<path d="M20364 11051 c-18 -11 -36 -25 -40 -33 -7 -12 14 0 71 39 30 20 4 15
-31 -6z"/>
<path d="M20210 10939 c0 -5 5 -7 10 -4 6 3 10 8 10 11 0 2 -4 4 -10 4 -5 0
-10 -5 -10 -11z"/>
<path d="M20135 10890 c-10 -11 -16 -22 -13 -25 3 -3 13 4 23 15 10 11 16 22
13 25 -3 3 -13 -4 -23 -15z"/>
<path d="M17050 10570 c-9 -6 -10 -10 -3 -10 6 0 15 5 18 10 8 12 4 12 -15 0z"/>
<path d="M16999 10539 c-10 -6 -7 -9 14 -9 29 0 35 5 14 13 -8 3 -20 1 -28 -4z"/>
<path d="M19523 10329 c-23 -16 -44 -38 -48 -48 -3 -11 -17 -27 -31 -36 -18
-11 -23 -22 -19 -35 5 -15 0 -21 -18 -25 -20 -5 -26 -15 -31 -49 -6 -39 -11
-44 -61 -69 l-54 -26 17 29 c9 16 14 32 10 36 -11 10 -104 -72 -154 -137 -24
-32 -52 -62 -61 -67 -14 -8 -13 -11 8 -22 33 -17 32 -16 19 -39 -13 -26 0 -28
39 -5 42 25 56 52 41 80 -17 32 -6 54 27 54 71 0 98 18 227 150 70 71 132 130
136 130 14 0 50 51 50 71 0 17 -28 40 -47 39 -4 -1 -27 -14 -50 -31z"/>
<path d="M19260 9909 c0 -5 5 -7 10 -4 6 3 10 8 10 11 0 2 -4 4 -10 4 -5 0
-10 -5 -10 -11z"/>
<path d="M22243 9821 c-70 -56 -89 -79 -207 -253 -151 -222 -205 -340 -252
-548 -35 -159 -36 -168 -24 -241 10 -66 10 -80 -4 -107 l-16 -31 65 -58 65
-59 -23 -34 c-78 -117 -117 -179 -132 -210 -10 -19 -32 -55 -50 -80 -66 -93
-106 -178 -103 -218 l3 -37 38 63 c20 35 37 67 37 71 0 4 14 24 32 43 17 20
79 125 137 233 l106 198 50 14 c28 8 68 18 90 23 22 4 58 15 80 24 22 8 52 15
67 16 15 0 42 13 60 29 35 30 64 44 193 93 138 51 217 68 229 49 3 -4 -81
-139 -187 -299 -265 -401 -297 -452 -286 -452 5 0 9 -7 9 -16 0 -11 -6 -15
-20 -11 -23 6 -53 -34 -31 -41 18 -6 13 -27 -14 -52 -32 -30 -44 -18 -22 19
21 36 22 47 2 31 -12 -10 -18 -10 -30 0 -8 6 -18 10 -24 8 -12 -4 -81 -96 -81
-108 0 -19 16 -10 38 20 23 31 72 43 72 18 -1 -19 -23 -43 -40 -43 -9 0 -16
-11 -18 -30 -2 -16 -7 -34 -12 -39 -5 -5 -6 -21 -3 -36 4 -24 1 -29 -34 -43
-43 -17 -73 -6 -52 19 16 19 29 17 29 -3 1 -15 4 -14 20 6 26 30 25 45 0 38
-23 -6 -23 -6 -10 27 11 29 -6 52 -46 62 -29 8 -39 1 -30 -21 4 -11 13 -14 25
-10 36 11 33 -16 -6 -68 -22 -29 -52 -71 -66 -94 -22 -35 -24 -42 -11 -47 26
-10 34 -7 34 12 0 21 30 52 49 52 7 0 11 -3 9 -7 -2 -5 -14 -29 -26 -56 -12
-26 -27 -50 -34 -52 -8 -3 -13 -22 -13 -44 0 -23 -13 -63 -34 -104 -37 -73
-73 -115 -40 -47 11 23 18 44 16 46 -7 7 -75 -98 -88 -134 -13 -38 -46 -41
-42 -4 3 22 2 22 -22 6 -30 -20 -31 -35 -5 -59 16 -14 19 -26 15 -47 -8 -35 1
-35 31 -2 14 14 24 37 24 54 0 29 59 110 60 82 0 -7 -10 -23 -23 -35 -12 -13
-21 -30 -19 -39 2 -9 -8 -39 -22 -67 -14 -28 -26 -58 -26 -68 0 -21 -27 -63
-40 -63 -5 0 -8 6 -6 13 1 6 1 9 -1 4 -3 -4 -10 -4 -16 0 -7 4 -8 0 -2 -13 17
-41 17 -74 -1 -102 l-18 -27 -6 24 c-4 18 -17 -12 -53 -121 -83 -257 -84 -308
-2 -366 25 -18 51 -32 57 -32 23 0 100 74 122 119 13 26 40 65 60 86 20 22 57
74 82 115 25 41 70 107 99 146 29 39 62 88 73 110 20 38 162 183 292 298 36
32 84 85 107 118 23 33 52 67 63 75 12 9 20 25 20 44 0 34 22 48 46 28 10 -9
18 -9 22 -2 4 6 31 22 60 37 29 15 113 64 185 109 128 79 208 116 254 117 12
0 25 5 28 10 10 16 -63 12 -150 -9 -132 -32 -304 -97 -362 -138 -31 -21 -94
-62 -142 -91 -110 -68 -227 -182 -243 -237 -13 -46 -35 -75 -56 -75 -7 0 -27
-14 -43 -31 -24 -26 -31 -29 -50 -19 -26 14 -41 -1 -37 -37 2 -17 -9 -32 -46
-58 -27 -19 -52 -33 -55 -30 -3 3 35 87 84 186 83 167 89 181 73 193 -24 18
-23 29 1 16 28 -15 39 -13 46 10 9 29 25 25 38 -10 14 -37 20 -37 46 -4 26 34
27 60 1 74 -14 7 -20 7 -20 0 0 -5 -4 -10 -10 -10 -19 0 -10 30 15 46 14 9 25
23 25 31 0 8 6 13 13 10 6 -2 12 -13 12 -24 0 -12 3 -24 6 -28 9 -9 93 92 119
145 32 64 91 147 140 200 23 25 56 63 73 85 18 22 56 66 85 99 57 64 122 165
122 189 0 9 9 19 20 22 11 3 32 23 47 43 15 20 53 64 85 97 159 166 207 237
194 289 -6 24 -46 68 -84 94 -20 13 -24 13 -43 -3 -19 -18 -21 -18 -63 24 -73
72 -142 72 -222 2 -26 -22 -57 -41 -68 -41 -12 0 -78 -16 -146 -35 -68 -19
-139 -35 -158 -35 -19 0 -80 -11 -136 -24 -115 -28 -265 -56 -295 -56 -11 0
-22 4 -26 9 -7 12 15 63 32 74 7 4 13 18 13 30 0 25 25 69 80 142 20 28 40 63
44 79 4 16 33 53 66 85 49 47 58 60 53 82 -3 19 3 35 24 60 16 19 41 55 56 80
25 45 165 179 186 179 17 0 79 59 96 92 36 73 5 123 -92 152 -11 4 -24 13 -27
21 -7 19 -99 65 -130 65 -13 0 -46 -17 -73 -39z m-123 -2137 c0 -8 -5 -12 -10
-9 -6 4 -8 11 -5 16 9 14 15 11 15 -7z m-166 -75 c-3 -5 -10 -7 -15 -3 -5 3
-7 10 -3 15 3 5 10 7 15 3 5 -3 7 -10 3 -15z"/>
<path d="M19012 9770 c-13 -14 -22 -18 -27 -11 -17 28 -105 -1 -105 -35 0 -20
49 -64 71 -64 21 0 26 29 8 47 -8 8 -1 16 25 28 37 18 63 42 53 51 -3 3 -14
-4 -25 -16z"/>
<path d="M24430 9654 c-89 -68 -90 -70 -84 -101 5 -24 -3 -44 -38 -99 -25 -38
-55 -94 -67 -124 -13 -30 -40 -82 -61 -116 -21 -33 -63 -110 -94 -170 -100
-196 -181 -325 -216 -344 -10 -5 -31 -10 -45 -10 -14 0 -36 -5 -48 -12 -12 -6
-76 -15 -142 -19 -141 -8 -240 -26 -256 -45 -7 -8 -9 -28 -5 -48 17 -90 160
-121 323 -69 86 27 85 22 -32 -177 -47 -79 -90 -160 -96 -179 -18 -55 -77
-170 -120 -231 -20 -30 -43 -75 -49 -99 -7 -25 -44 -108 -82 -185 -39 -78 -79
-172 -90 -211 -11 -38 -29 -85 -41 -104 -11 -19 -24 -53 -28 -75 -5 -23 -23
-81 -41 -131 -30 -85 -32 -98 -33 -225 0 -169 14 -213 83 -264 26 -19 61 -49
77 -66 17 -18 61 -47 98 -66 55 -28 83 -36 147 -40 67 -4 80 -2 92 13 13 18
116 69 243 121 89 36 415 262 415 288 0 8 -36 -14 -50 -30 -14 -17 -46 -21
-54 -7 -3 5 9 20 27 34 18 14 44 41 57 61 14 19 35 41 47 47 28 15 29 33 3 52
-18 13 -15 18 63 93 45 45 136 128 202 186 114 100 235 220 235 232 0 18 -29
-5 -138 -108 -66 -63 -134 -122 -151 -132 -17 -10 -31 -22 -31 -26 0 -18 -42
-48 -65 -48 -18 0 -28 7 -35 25 l-10 26 -41 -23 c-22 -13 -84 -64 -136 -115
-86 -82 -95 -95 -91 -122 4 -27 2 -29 -21 -25 -20 4 -49 -10 -122 -58 -52 -35
-115 -80 -140 -102 -33 -29 -82 -52 -199 -96 -85 -32 -159 -56 -165 -54 -6 3
-19 42 -29 88 -16 74 -17 86 -3 112 8 16 18 45 22 64 4 19 17 53 30 76 18 31
22 50 18 80 -4 35 1 49 43 114 26 40 47 80 47 87 0 20 38 6 65 -24 26 -28 48
-25 61 9 15 41 3 51 -55 45 l-54 -6 30 59 c25 50 27 60 15 70 -20 17 -19 44 4
64 17 16 19 16 25 -1 6 -15 9 -16 15 -3 5 8 12 25 15 38 6 18 4 22 -16 22 -13
0 -30 -4 -38 -10 -9 -6 -17 -5 -22 3 -6 9 -12 7 -23 -7 -11 -14 -13 -34 -8
-77 5 -48 3 -59 -9 -59 -8 0 -20 -16 -26 -38 -6 -20 -18 -46 -27 -57 -15 -19
-15 -19 -9 10 4 17 13 48 20 70 8 22 14 48 14 58 0 17 -2 17 -30 -3 l-30 -21
0 27 c0 16 8 48 17 72 13 35 14 50 6 73 -14 35 0 47 20 18 15 -20 15 -20 43
15 16 20 34 36 40 36 7 0 19 -15 28 -34 10 -22 27 -38 49 -45 28 -11 34 -9 50
10 17 21 17 23 0 41 -13 15 -26 18 -50 15 -38 -7 -47 5 -56 71 l-5 42 37 0
c20 0 45 6 55 13 18 13 18 14 0 21 -16 6 -16 9 -4 16 8 6 27 10 43 10 22 0 27
-4 27 -24 0 -14 5 -28 11 -32 14 -8 89 65 89 88 0 9 8 22 18 27 23 12 77 113
87 161 4 19 19 47 33 63 25 26 25 29 10 55 -35 61 -30 111 7 60 16 -23 16 -23
30 -4 8 11 15 24 15 29 0 5 35 44 78 86 51 50 88 96 108 135 43 88 56 95 209
103 100 5 123 8 100 15 -49 15 -78 28 -72 34 3 3 155 12 338 20 183 7 334 16
337 19 3 2 -8 10 -24 16 -19 7 -155 13 -399 16 -347 5 -395 9 -395 33 0 4 12
25 26 46 14 21 32 57 39 80 7 23 37 71 68 108 31 36 59 77 62 91 3 14 8 37 11
52 3 15 27 51 52 79 120 131 162 197 177 277 9 46 -10 111 -43 148 -24 27 -36
31 -107 39 -44 4 -96 13 -115 19 -44 14 -37 16 -90 -25z m-350 -860 c-30 -61
-57 -91 -70 -78 -7 7 3 26 37 66 27 30 49 54 50 53 2 -1 -6 -19 -17 -41z
m-232 -391 c-112 -211 -527 -978 -538 -993 -23 -33 -1 72 23 108 14 20 27 54
30 76 4 21 24 66 45 100 22 33 93 165 157 291 65 127 128 244 140 260 12 17
47 73 79 125 110 180 154 203 64 33z m76 -204 c63 -56 72 -74 38 -76 -15 0
-39 -4 -54 -8 -32 -8 -42 7 -52 78 -9 60 5 62 68 6z m-99 -202 c-20 -83 -30
-99 -59 -95 -35 5 -30 34 21 119 54 92 64 85 38 -24z m5 -127 c0 -5 -2 -10 -4
-10 -3 0 -8 5 -11 10 -3 6 -1 10 4 10 6 0 11 -4 11 -10z m-120 -245 c0 -8 -4
-15 -9 -15 -13 0 -22 16 -14 24 11 11 23 6 23 -9z m560 -494 c10 -19 -3 -47
-17 -38 -6 4 -27 -9 -48 -28 -41 -39 -50 -42 -58 -21 -3 7 10 28 29 47 19 18
34 38 34 45 0 28 44 24 60 -5z m-270 -246 c0 -8 -6 -15 -14 -15 -17 0 -28 14
-19 24 12 12 33 6 33 -9z m113 -28 c-3 -5 -10 -4 -15 1 -6 6 -7 16 -3 22 6 9
9 9 16 -1 4 -7 5 -17 2 -22z m-183 -17 c0 -5 -4 -10 -9 -10 -6 0 -13 5 -16 10
-3 6 1 10 9 10 9 0 16 -4 16 -10z"/>
<path d="M18801 9653 c-25 -30 -22 -35 25 -58 35 -16 37 -16 62 2 38 28 39 43
3 43 -17 0 -40 9 -51 20 -19 19 -19 19 -39 -7z"/>
<path d="M18726 9541 c15 -15 117 -18 121 -3 4 9 -13 12 -63 12 -41 0 -64 -4
-58 -9z"/>
<path d="M18582 9431 l-42 -50 47 -6 c70 -10 71 -10 33 -30 -19 -10 -53 -38
-75 -63 l-41 -45 -26 28 c-27 29 -48 27 -48 -4 0 -10 -9 -26 -20 -36 -31 -28
-24 -35 30 -35 70 0 113 20 140 66 12 22 51 64 86 94 35 30 63 61 64 68 0 7
-13 12 -34 12 -25 0 -39 7 -53 26 l-19 25 -42 -50z"/>
<path d="M18360 9115 c0 -2 9 -9 19 -14 14 -8 22 -7 31 4 11 13 8 15 -19 15
-17 0 -31 -2 -31 -5z"/>
<path d="M17927 8685 c-5 -10 4 -16 28 -21 58 -11 37 -34 -30 -34 -39 0 -65
-8 -65 -21 0 -12 62 -68 76 -69 23 0 124 126 124 155 0 3 -29 5 -64 5 -47 0
-65 -4 -69 -15z"/>
<path d="M17692 8652 c-18 -17 -32 -40 -32 -51 0 -21 1 -21 30 -6 16 8 32 26
36 40 11 43 0 48 -34 17z"/>
<path d="M17530 8405 c15 -18 51 -16 58 3 2 8 -8 12 -33 12 -33 0 -36 -2 -25
-15z"/>
<path d="M17669 8368 c-12 -23 -12 -23 10 -4 23 21 26 26 11 26 -5 0 -15 -10
-21 -22z"/>
<path d="M20974 8281 c-57 -4 -98 -12 -108 -21 -10 -7 -45 -17 -77 -21 -44 -5
-74 -16 -113 -42 -29 -19 -85 -51 -123 -71 -77 -38 -139 -98 -109 -104 10 -2
35 3 57 12 50 20 88 20 109 1 15 -14 26 -10 111 34 54 29 153 68 234 93 123
38 152 43 235 43 90 0 98 -2 160 -35 54 -30 73 -47 109 -103 44 -66 81 -89 81
-49 0 35 -55 128 -105 178 -91 91 -161 104 -461 85z m-304 -171 c0 -5 -4 -10
-10 -10 -5 0 -10 5 -10 10 0 6 5 10 10 10 6 0 10 -4 10 -10z"/>
<path d="M22189 8164 c-19 -23 -31 -54 -21 -54 21 0 44 28 40 49 -3 23 -4 23
-19 5z"/>
<path d="M20426 8106 c-98 -60 -121 -78 -88 -69 12 3 29 2 38 -1 13 -5 7 -14
-30 -43 -55 -42 -45 -63 16 -32 44 22 66 54 43 63 -27 10 -16 35 33 70 82 61
87 65 82 66 -3 0 -45 -24 -94 -54z"/>
<path d="M21690 8053 c-29 -53 -84 -129 -125 -175 -28 -31 -35 -46 -35 -81 0
-40 -21 -87 -39 -87 -8 0 14 81 49 177 29 80 2 58 -82 -65 -40 -59 -111 -156
-157 -217 -47 -60 -127 -172 -178 -247 -107 -160 -165 -231 -286 -348 -101
-98 -111 -126 -54 -160 40 -25 68 -25 98 -1 13 10 39 26 56 35 36 18 192 196
278 316 30 41 84 113 120 160 36 47 77 108 91 137 15 29 38 62 51 75 14 13 34
55 49 104 13 45 31 87 38 93 8 7 17 24 21 39 3 15 19 43 35 63 45 56 123 219
105 219 -8 0 -24 -17 -35 -37z"/>
<path d="M22055 8070 c-3 -5 -2 -10 4 -10 5 0 13 5 16 10 3 6 2 10 -4 10 -5 0
-13 -4 -16 -10z"/>
<path d="M20243 7984 c-20 -18 -22 -22 -7 -15 21 10 52 41 41 41 -3 0 -19 -12
-34 -26z"/>
<path d="M20440 7970 c-28 -28 -26 -42 4 -30 13 4 42 14 65 20 54 14 52 30 -4
30 -32 0 -51 -6 -65 -20z"/>
<path d="M13619 7905 c-26 -14 -59 -69 -59 -99 0 -30 23 -65 51 -76 55 -23
121 35 123 108 1 71 -51 102 -115 67z"/>
<path d="M16515 7909 c-55 -5 -122 -15 -150 -22 l-50 -14 47 -7 c53 -8 167 5
278 33 l75 19 -50 0 c-27 -1 -95 -5 -150 -9z"/>
<path d="M23961 7896 c-9 -10 -9 -16 -1 -21 17 -10 37 12 24 25 -8 8 -15 6
-23 -4z"/>
<path d="M15750 7890 c0 -5 5 -10 10 -10 6 0 10 5 10 10 0 6 -4 10 -10 10 -5
0 -10 -4 -10 -10z"/>
<path d="M20355 7890 c-16 -7 -12 -9 18 -9 23 -1 36 3 32 9 -7 12 -23 12 -50
0z"/>
<path d="M9607 7883 c-4 -3 -7 -14 -7 -23 0 -14 13 -19 63 -24 34 -4 73 -14
86 -23 22 -14 23 -19 16 -81 -19 -179 -175 -1056 -191 -1072 -3 -3 -24 -12
-47 -21 -22 -9 -44 -25 -47 -35 -7 -18 5 -19 439 -21 245 -1 451 1 456 5 6 4
19 64 28 133 10 70 21 136 24 148 5 20 2 22 -23 19 -26 -3 -30 -9 -55 -96 -14
-51 -31 -98 -38 -105 -6 -6 -37 -14 -68 -18 -70 -9 -309 -9 -413 0 -67 5 -75
8 -78 28 -2 12 15 133 37 268 23 135 41 248 41 251 0 4 105 5 234 3 l234 -4
12 35 c6 19 13 40 16 45 3 8 -71 10 -237 7 l-242 -5 7 54 c16 118 79 445 87
454 13 13 375 10 411 -4 28 -11 31 -18 43 -133 6 -52 9 -58 29 -58 21 0 23 6
35 118 6 64 14 127 17 140 l6 22 -434 0 c-239 0 -438 -3 -441 -7z"/>
<path d="M19512 7878 c2 -6 10 -14 16 -16 7 -2 10 2 6 12 -7 18 -28 22 -22 4z"/>
<path d="M16009 7863 c-56 -3 -68 -7 -72 -23 -5 -19 0 -20 81 -19 100 1 194
18 200 37 4 12 -43 13 -209 5z"/>
<path d="M20164 7845 c-27 -41 -11 -48 26 -10 31 32 32 35 12 35 -12 0 -29
-11 -38 -25z"/>
<path d="M17377 7854 c-13 -13 -7 -24 14 -24 11 0 19 5 17 12 -5 14 -22 21
-31 12z"/>
<path d="M19388 7799 c-28 -14 -38 -26 -38 -44 0 -13 4 -26 9 -29 7 -5 108 12
119 20 8 5 -29 74 -40 74 -7 -1 -30 -10 -50 -21z"/>
<path d="M17175 7748 c-21 -31 -2 -36 42 -13 41 22 42 35 4 35 -20 0 -35 -8
-46 -22z"/>
<path d="M23747 7744 c-8 -8 1 -24 13 -24 4 0 10 7 14 15 5 15 -14 21 -27 9z"/>
<path d="M17155 7690 c-3 -5 -1 -10 4 -10 6 0 11 5 11 10 0 6 -2 10 -4 10 -3
0 -8 -4 -11 -10z"/>
<path d="M19411 7650 c-13 -11 -36 -20 -51 -20 -36 0 -65 -35 -74 -88 -3 -21
-17 -51 -32 -67 -20 -22 -25 -34 -20 -59 14 -70 31 -57 89 69 33 70 52 100 64
101 45 3 59 15 59 50 0 39 -3 40 -35 14z"/>
<path d="M20195 7650 c3 -5 11 -10 16 -10 6 0 7 5 4 10 -3 6 -11 10 -16 10 -6
0 -7 -4 -4 -10z"/>
<path d="M23780 7650 c0 -5 5 -10 10 -10 6 0 10 5 10 10 0 6 -4 10 -10 10 -5
0 -10 -4 -10 -10z"/>
<path d="M23860 7630 c0 -5 9 -10 21 -10 11 0 17 5 14 10 -3 6 -13 10 -21 10
-8 0 -14 -4 -14 -10z"/>
<path d="M21779 7529 c-12 -38 -19 -73 -15 -76 12 -12 34 19 45 62 26 105 1
117 -30 14z"/>
<path d="M23724 7585 c-11 -27 5 -65 26 -65 13 0 22 9 26 25 8 34 -1 55 -26
55 -11 0 -23 -7 -26 -15z"/>
<path d="M17031 7553 c-17 -37 0 -51 34 -29 26 17 26 18 9 37 -23 25 -28 24
-43 -8z"/>
<path d="M23840 7544 c-13 -32 -13 -44 0 -44 10 0 30 41 30 61 0 19 -21 8 -30
-17z"/>
<path d="M23910 7561 c0 -6 5 -13 10 -16 6 -3 10 1 10 9 0 9 -4 16 -10 16 -5
0 -10 -4 -10 -9z"/>
<path d="M23626 7481 c-4 -5 -2 -12 3 -15 5 -4 12 -2 15 3 4 5 2 12 -3 15 -5
4 -12 2 -15 -3z"/>
<path d="M10930 7459 c-47 -20 -230 -139 -230 -149 0 -3 4 -11 9 -19 7 -11 18
-7 55 18 26 18 62 35 81 38 31 5 35 3 41 -23 10 -41 -38 -316 -96 -548 -27
-109 -48 -202 -45 -206 4 -6 123 14 129 22 2 2 11 44 20 93 57 300 135 465
278 587 106 91 171 113 184 63 13 -53 -17 -227 -93 -538 -31 -125 -54 -229
-52 -232 4 -4 128 20 133 26 2 2 16 63 30 135 44 222 83 320 172 433 108 139
289 245 308 183 9 -28 -20 -180 -65 -347 -104 -379 -106 -393 -64 -421 22 -14
32 -15 63 -6 51 15 252 148 252 166 0 28 -17 25 -76 -15 -70 -47 -107 -49
-112 -6 -2 15 33 175 77 355 45 180 81 341 81 358 0 36 -16 54 -47 54 -35 0
-131 -39 -207 -84 -76 -44 -225 -185 -271 -254 -15 -23 -30 -40 -32 -38 -3 2
9 72 26 154 36 172 37 185 15 206 -24 24 -63 19 -139 -18 -122 -58 -247 -167
-336 -291 -18 -25 -34 -43 -36 -41 -3 2 10 75 27 161 43 209 32 234 -80 184z"/>
<path d="M12470 7464 c-60 -26 -250 -148 -250 -161 0 -26 23 -22 87 17 90 54
107 51 111 -18 4 -74 -114 -729 -199 -1106 -16 -71 -28 -131 -26 -133 2 -2 36
2 74 9 l70 12 16 109 c9 61 29 173 43 249 l26 139 42 -8 c22 -4 65 -8 94 -7
99 1 298 125 384 239 83 110 148 311 148 458 0 105 -13 158 -49 193 -23 23
-31 26 -76 20 -30 -3 -87 -24 -141 -51 -104 -51 -196 -132 -259 -228 -21 -31
-39 -56 -41 -55 -1 2 8 55 21 118 44 209 29 249 -75 204z m466 -119 c21 -32
20 -146 -2 -252 -29 -145 -114 -334 -175 -393 -65 -61 -164 -76 -259 -37 -53
22 -55 24 -52 57 6 79 65 289 103 368 73 151 226 282 330 282 30 0 42 -6 55
-25z"/>
<path d="M13565 7467 c-90 -36 -257 -151 -248 -172 7 -21 13 -19 79 20 32 19
69 35 82 35 25 0 25 -1 19 -67 -3 -38 -33 -176 -67 -307 -34 -132 -64 -267
-67 -301 -5 -55 -3 -64 19 -89 21 -24 29 -27 57 -21 18 4 72 33 119 66 125 84
146 104 136 122 -8 13 -19 9 -73 -24 -36 -21 -75 -39 -88 -39 -43 0 -34 67 62
452 81 324 77 367 -30 325z"/>
<path d="M14186 7454 c-54 -28 -223 -141 -232 -156 -4 -5 -1 -15 4 -20 8 -8
30 1 75 30 67 44 104 52 114 26 9 -25 -53 -376 -102 -570 -25 -98 -43 -184
-41 -190 3 -7 24 -6 68 5 l65 16 35 160 c19 88 49 195 66 238 54 133 141 251
213 288 46 23 69 24 95 4 40 -30 49 -20 62 70 7 47 15 91 18 99 7 19 -35 31
-72 22 -55 -14 -182 -160 -276 -318 -22 -38 -43 -67 -45 -65 -2 3 8 55 22 117
62 275 53 307 -69 244z"/>
<path d="M15165 7462 c-75 -26 -176 -85 -234 -138 -62 -56 -109 -144 -146
-271 -86 -295 -35 -464 148 -489 93 -13 214 34 343 132 56 42 71 59 67 74 -6
21 -7 21 -71 -22 -129 -88 -258 -117 -318 -72 -60 44 -69 67 -68 173 1 103 13
141 43 141 38 0 198 52 277 89 138 66 206 146 207 244 1 70 -23 114 -76 138
-52 23 -107 24 -172 1z m82 -88 c23 -23 25 -31 21 -84 -5 -73 -39 -126 -113
-174 -78 -53 -245 -105 -245 -77 0 27 55 193 78 234 60 111 196 164 259 101z"/>
<path d="M23678 7429 c-10 -5 -18 -19 -18 -30 0 -34 44 -21 48 14 4 29 -3 32
-30 16z"/>
<path d="M24400 7320 c0 -24 15 -27 24 -4 9 22 8 24 -9 24 -8 0 -15 -9 -15
-20z"/>
<path d="M16870 7315 c-15 -18 -6 -45 15 -45 12 0 14 6 9 28 -9 35 -9 35 -24
17z"/>
<path d="M23727 7253 c-4 -3 -7 -13 -7 -22 1 -13 3 -13 11 2 11 19 8 33 -4 20z"/>
<path d="M21611 7202 c-14 -26 -14 -42 -1 -42 11 0 25 48 17 56 -3 3 -10 -3
-16 -14z"/>
<path d="M23600 7200 c-12 -22 -26 -110 -17 -110 3 0 11 17 17 38 7 20 22 45
34 54 18 15 19 19 6 28 -22 14 -28 12 -40 -10z"/>
<path d="M16770 7145 c0 -9 5 -15 11 -13 6 2 11 8 11 13 0 5 -5 11 -11 13 -6
2 -11 -4 -11 -13z"/>
<path d="M21575 7130 c-3 -5 -1 -10 4 -10 6 0 11 5 11 10 0 6 -2 10 -4 10 -3
0 -8 -4 -11 -10z"/>
<path d="M16650 7105 c-11 -13 -10 -14 4 -9 9 3 16 10 16 15 0 13 -6 11 -20
-6z"/>
<path d="M21547 7064 c-4 -4 -7 -15 -7 -25 0 -10 -11 -31 -25 -47 -27 -33 -32
-52 -12 -52 13 0 61 103 55 120 -2 6 -7 8 -11 4z"/>
<path d="M16606 7033 c-6 -14 -5 -15 5 -6 7 7 10 15 7 18 -3 3 -9 -2 -12 -12z"/>
<path d="M16558 6963 c-15 -16 -32 -41 -38 -58 -11 -30 -11 -30 8 -10 20 21
66 95 60 95 -2 0 -16 -12 -30 -27z"/>
<path d="M21552 6959 c2 -6 8 -10 13 -10 5 0 11 4 13 10 2 6 -4 11 -13 11 -9
0 -15 -5 -13 -11z"/>
<path d="M24315 6950 c-3 -5 -1 -10 4 -10 6 0 11 5 11 10 0 6 -2 10 -4 10 -3
0 -8 -4 -11 -10z"/>
<path d="M16577 6879 c-23 -13 -47 -62 -47 -94 0 -21 4 -25 28 -24 15 1 38 4
52 8 l25 8 -27 13 c-31 15 -35 36 -13 66 25 33 17 43 -18 23z"/>
<path d="M16459 6821 c-40 -46 -142 -221 -134 -229 3 -3 12 1 20 9 21 22 157
250 152 255 -2 3 -20 -13 -38 -35z"/>
</g>
</svg>
